<svg width="196" height="38" viewBox="0 0 196 38" fill="none" xmlns="http://www.w3.org/2000/svg">
<path d="M0.5 36.3081V34.2877L3.60314 34.0535L4.45211 33.3507V6.17818L3.60314 5.47544L0.5 5.18264V3.22083H12.5613V5.18264L9.75086 5.47544L8.90189 6.17818V34.0535H20.0556L20.7582 33.2629L21.6072 27.3482H24.1541V36.3374H0.5V36.3081Z" fill="white"/>
<path d="M46.9886 31.096V33.8191C45.5249 34.7854 44.0026 35.5174 42.4218 36.0151C40.8409 36.5129 39.2601 36.7764 37.6792 36.7764C34.4004 36.7764 31.7657 35.6638 29.7165 33.4092C27.6965 31.1545 26.6719 28.2557 26.6719 24.6542C26.6719 21.0527 27.7258 17.9489 29.8628 15.6065C31.9999 13.264 34.7225 12.0928 38.0891 12.0928C40.8116 12.0928 42.978 12.9712 44.5881 14.6988C46.1982 16.4556 46.9886 18.8273 46.9886 21.814C46.9886 22.2239 46.9886 22.5167 46.9886 22.7217C46.9886 22.9267 46.9886 23.1316 46.9301 23.3366H30.9167V23.8929C30.9167 26.9967 31.6779 29.4563 33.1709 31.2424C34.6639 33.0578 36.6839 33.9655 39.2308 33.9655C40.4018 33.9655 41.6313 33.7312 42.8902 33.2628C44.149 32.7943 45.5249 32.0622 47.0179 31.096H46.9886ZM42.5681 21.2576V20.4963C42.5681 18.5053 42.129 16.9827 41.2508 15.9286C40.3725 14.8744 39.1137 14.3474 37.445 14.3474C35.7764 14.3474 34.4004 14.9916 33.2002 16.3092C31.9999 17.6268 31.3266 19.2666 31.1802 21.2576H42.5681Z" fill="white"/>
<path d="M80.8591 2.37193C82.9669 2.37193 84.9283 2.7233 86.7434 3.45532C88.5584 4.18734 90.2271 5.27073 91.7201 6.70548C93.3888 8.31593 94.6476 10.2485 95.5258 12.4445C96.3748 14.6406 96.8139 17.0709 96.8139 19.7354C96.8139 21.5801 96.609 23.3077 96.1992 24.9181C95.7893 26.5286 95.1453 28.0804 94.3256 29.4859C92.9204 31.8869 91.0468 33.7609 88.6755 35.0785C86.3043 36.4255 83.7281 37.0989 80.8884 37.0989C78.7806 37.0989 76.7899 36.7475 74.9456 36.0155C73.1013 35.2835 71.4619 34.2294 70.0274 32.8532C68.3588 31.2428 67.0999 29.3102 66.2217 27.0849C65.3434 24.8596 64.9336 22.4 64.9336 19.7061C64.9336 17.0123 65.3727 14.582 66.2217 12.386C67.0707 10.1899 68.3295 8.28665 69.9689 6.6762C71.4326 5.24145 73.1013 4.15806 74.9456 3.42604C76.7899 2.69402 78.7513 2.34265 80.8884 2.34265L80.8591 2.37193ZM80.8591 5.03648C77.5511 5.03648 74.9163 6.35412 72.9549 8.98938C70.9935 11.6247 70.0274 15.1969 70.0274 19.7354C70.0274 24.2739 71.0228 27.8169 72.9842 30.4815C74.9456 33.146 77.5803 34.4929 80.8591 34.4929C84.1379 34.4929 86.7141 33.146 88.6755 30.4815C90.6369 27.8169 91.603 24.2154 91.603 19.7354C91.603 15.2555 90.6369 11.6832 88.6755 9.01866C86.7141 6.35412 84.1086 5.03648 80.8591 5.03648Z" fill="white"/>
<path d="M100.327 36.308V34.5218L102.962 34.2876L103.811 33.497V15.6357H100.327V14.0839L106.065 12.327H107.939V16.9534C108.729 16.1335 109.578 15.3137 110.456 14.5231C111.335 13.7325 112.242 12.9419 113.208 12.1806C113.354 12.1221 113.501 12.0928 113.677 12.0928C113.852 12.0928 114.086 12.0928 114.438 12.0928C114.935 12.0928 115.433 12.1513 115.901 12.2392C116.37 12.327 116.867 12.5027 117.394 12.7369V16.9827H115.843C115.521 16.602 115.14 16.3092 114.73 16.1042C114.321 15.8993 113.823 15.8114 113.325 15.8114C112.535 15.8114 111.715 16.1042 110.837 16.6899C109.959 17.2755 108.993 18.1832 107.968 19.413V33.5263L108.817 34.3169L112.271 34.5511V36.3372H100.356L100.327 36.308Z" fill="white"/>
<path d="M134.169 33.4386C132.588 34.522 131.124 35.3419 129.807 35.8689C128.49 36.396 127.231 36.6595 126.089 36.6595C124.186 36.6595 122.635 36.0739 121.493 34.9319C120.351 33.7607 119.766 32.2381 119.766 30.3641C119.766 28.2559 120.615 26.6162 122.342 25.3864C124.069 24.1859 128.021 22.839 134.169 21.375V19.7938C134.169 17.7149 133.818 16.2801 133.144 15.4895C132.471 14.6989 131.3 14.289 129.631 14.289C129.016 14.289 128.372 14.3476 127.787 14.494C127.172 14.6111 126.528 14.8161 125.884 15.0796V19.2375H122.488C121.903 19.2375 121.493 19.1203 121.259 18.9154C121.054 18.7104 120.937 18.3005 120.937 17.7149C120.937 16.1044 121.873 14.7868 123.718 13.7034C125.562 12.62 127.963 12.1222 130.919 12.1222C133.496 12.1222 135.398 12.6786 136.569 13.8205C137.74 14.9332 138.326 16.7486 138.326 19.2375V33.5557L139.175 34.3463L141.78 34.5806V36.3667H134.842L134.198 33.4972L134.169 33.4386ZM123.015 0H127.904L132.676 9.36984H130.217L123.015 0ZM134.169 31.7989V23.1025C130.041 24.2445 127.319 25.2986 126.03 26.2356C124.742 27.1725 124.098 28.4316 124.098 29.9835C124.098 31.2133 124.45 32.2088 125.181 32.9408C125.913 33.6729 126.85 34.0242 128.05 34.0242C128.812 34.0242 129.719 33.8486 130.714 33.4679C131.71 33.0873 132.881 32.5309 134.169 31.7989Z" fill="white"/>
<path d="M144.182 36.3084V34.5223L146.846 34.288L147.695 33.4975V15.6362H144.182V14.0843L149.92 12.3275H151.793V15.0213C153.755 13.9379 155.365 13.1766 156.565 12.7081C157.765 12.2689 158.819 12.0347 159.756 12.0347C161.922 12.0347 163.562 12.6788 164.703 13.9672C165.845 15.2556 166.401 17.1295 166.401 19.5598V33.4682L167.25 34.2588L169.914 34.493V36.2791H159.112V34.493L161.483 34.2588L162.332 33.4682V20.4382C162.332 18.5936 161.951 17.2759 161.19 16.5146C160.429 15.7533 159.141 15.3434 157.355 15.3434C156.565 15.3434 155.716 15.4898 154.808 15.7533C153.901 16.0169 152.906 16.4268 151.852 16.9831V33.5267L152.701 34.3173L155.072 34.5516V36.3377H144.24L144.182 36.3084Z" fill="white"/>
<path d="M184.024 12.0634C187.39 12.0634 190.142 13.2054 192.279 15.5186C194.445 17.8318 195.499 20.7891 195.499 24.3906C195.499 27.9922 194.416 30.9788 192.25 33.2627C190.084 35.5466 187.332 36.7178 183.994 36.7178C180.657 36.7178 177.905 35.5759 175.768 33.2627C173.631 30.9788 172.548 27.9922 172.548 24.3614C172.548 20.7305 173.602 17.7732 175.739 15.46C177.876 13.1761 180.628 12.0049 183.994 12.0049L184.024 12.0634ZM184.024 14.1717C181.974 14.1717 180.306 15.1086 179.076 16.9533C177.817 18.798 177.203 21.2869 177.203 24.3906C177.203 27.4944 177.817 29.9833 179.076 31.828C180.335 33.6726 181.974 34.6096 184.024 34.6096C186.073 34.6096 187.771 33.6726 189 31.828C190.259 29.9833 190.874 27.4944 190.874 24.3906C190.874 21.2869 190.23 18.8273 188.971 16.9533C187.712 15.0794 186.044 14.1717 183.994 14.1717H184.024Z" fill="white"/>
</svg>
