<svg width="195" height="38" viewBox="0 0 195 38" fill="none" xmlns="http://www.w3.org/2000/svg">
<path d="M0 36.308V34.2876L3.10314 34.0533L3.95211 33.3506V6.17806L3.10314 5.47532L0 5.18251V3.2207H12.0613V5.18251L9.25086 5.47532L8.40189 6.17806V34.0533H19.5556L20.2582 33.2628L21.1072 27.348H23.6541V36.3372H0V36.308Z" fill="white"/>
<path d="M46.4886 31.096V33.8191C45.0249 34.7854 43.5026 35.5174 41.9218 36.0152C40.3409 36.5129 38.7601 36.7765 37.1792 36.7765C33.9004 36.7765 31.2657 35.6638 29.2165 33.4092C27.1965 31.1545 26.1719 28.2558 26.1719 24.6542C26.1719 21.0527 27.2258 17.9489 29.3628 15.6065C31.4999 13.264 34.2225 12.0928 37.5891 12.0928C40.3116 12.0928 42.478 12.9712 44.0881 14.6988C45.6982 16.4556 46.4886 18.8273 46.4886 21.814C46.4886 22.2239 46.4886 22.5167 46.4886 22.7217C46.4886 22.9267 46.4886 23.1316 46.4301 23.3366H30.4167V23.8929C30.4167 26.9967 31.1779 29.4563 32.6709 31.2424C34.1639 33.0578 36.1839 33.9655 38.7308 33.9655C39.9018 33.9655 41.1313 33.7313 42.3902 33.2628C43.649 32.7943 45.0249 32.0622 46.5179 31.096H46.4886ZM42.0681 21.2577V20.4963C42.0681 18.5053 41.629 16.9827 40.7508 15.9286C39.8725 14.8744 38.6137 14.3474 36.945 14.3474C35.2764 14.3474 33.9004 14.9916 32.7002 16.3092C31.4999 17.6268 30.8266 19.2666 30.6802 21.2577H42.0681V21.2577Z" fill="white"/>
<path d="M80.3595 2.37157C82.4673 2.37157 84.4287 2.72293 86.2437 3.45495C88.0588 4.18697 89.7275 5.27036 91.2205 6.70512C92.8891 8.31556 94.148 10.2481 95.0262 12.4441C95.8752 14.6402 96.3143 17.0705 96.3143 19.7351C96.3143 21.5797 96.1094 23.3073 95.6995 24.9177C95.2897 26.5282 94.6456 28.0801 93.8259 29.4855C92.4207 31.8866 90.5472 33.7605 88.1759 35.0782C85.8046 36.4251 83.2284 37.0985 80.3888 37.0985C78.281 37.0985 76.2903 36.7472 74.446 36.0152C72.6017 35.2831 70.9623 34.229 69.5278 32.8528C67.8591 31.2424 66.6003 29.3099 65.7221 27.0845C64.8438 24.8592 64.434 22.3996 64.434 19.7058C64.434 17.0119 64.8731 14.5816 65.7221 12.3856C66.571 10.1895 67.8298 8.28628 69.4692 6.67584C70.933 5.24108 72.6017 4.15769 74.446 3.42567C76.2903 2.69365 78.2517 2.34229 80.3888 2.34229L80.3595 2.37157ZM80.3595 5.03611C77.0514 5.03611 74.4167 6.35375 72.4553 8.98902C70.4939 11.6243 69.5278 15.1965 69.5278 19.7351C69.5278 24.2736 70.5231 27.8165 72.4846 30.4811C74.446 33.1456 77.0807 34.4926 80.3595 34.4926C83.6383 34.4926 86.2145 33.1456 88.1759 30.4811C90.1373 27.8165 91.1034 24.215 91.1034 19.7351C91.1034 15.2551 90.1373 11.6828 88.1759 9.0183C86.2145 6.35375 83.609 5.03611 80.3595 5.03611V5.03611Z" fill="white"/>
<path d="M99.8274 36.308V34.5218L102.462 34.2876L103.311 33.497V15.6357H99.8274V14.0839L105.565 12.327H107.439V16.9534C108.229 16.1335 109.078 15.3137 109.957 14.5231C110.835 13.7325 111.742 12.9419 112.708 12.1806C112.855 12.1221 113.001 12.0928 113.177 12.0928C113.352 12.0928 113.587 12.0928 113.938 12.0928C114.436 12.0928 114.933 12.1513 115.402 12.2392C115.87 12.327 116.368 12.5027 116.895 12.7369V16.9827H115.343C115.021 16.602 114.64 16.3092 114.231 16.1042C113.821 15.8993 113.323 15.8114 112.825 15.8114C112.035 15.8114 111.215 16.1042 110.337 16.6899C109.459 17.2755 108.493 18.1832 107.468 19.413V33.5263L108.317 34.3169L111.772 34.5511V36.3372H99.8567L99.8274 36.308Z" fill="white"/>
<path d="M133.669 33.4386C132.088 34.522 130.625 35.3419 129.307 35.8689C127.99 36.396 126.731 36.6595 125.589 36.6595C123.686 36.6595 122.135 36.0739 120.993 34.9319C119.851 33.7607 119.266 32.2381 119.266 30.3641C119.266 28.2559 120.115 26.6162 121.842 25.3864C123.569 24.1859 127.521 22.839 133.669 21.375V19.7938C133.669 17.7149 133.318 16.2801 132.644 15.4895C131.971 14.6989 130.8 14.289 129.132 14.289C128.517 14.289 127.873 14.3476 127.287 14.494C126.672 14.6111 126.028 14.8161 125.384 15.0796V19.2375H121.988C121.403 19.2375 120.993 19.1203 120.759 18.9154C120.554 18.7104 120.437 18.3005 120.437 17.7149C120.437 16.1044 121.374 14.7868 123.218 13.7034C125.062 12.62 127.463 12.1222 130.42 12.1222C132.996 12.1222 134.899 12.6786 136.07 13.8205C137.241 14.9332 137.826 16.7486 137.826 19.2375V33.5557L138.675 34.3463L141.281 34.5806V36.3667H134.342L133.698 33.4972L133.669 33.4386ZM122.515 0H127.404L132.176 9.36984H129.717L122.515 0ZM133.669 31.7989V23.1025C129.541 24.2445 126.819 25.2986 125.531 26.2356C124.243 27.1725 123.599 28.4316 123.599 29.9835C123.599 31.2133 123.95 32.2088 124.682 32.9409C125.414 33.6729 126.35 34.0242 127.551 34.0242C128.312 34.0242 129.219 33.8486 130.215 33.4679C131.21 33.0873 132.381 32.5309 133.669 31.7989V31.7989Z" fill="white"/>
<path d="M143.681 36.3079V34.5218L146.345 34.2876L147.194 33.497V15.6357H143.681V14.0838L149.419 12.327H151.293V15.0208C153.254 13.9374 154.864 13.1761 156.064 12.7076C157.265 12.2684 158.319 12.0342 159.255 12.0342C161.422 12.0342 163.061 12.6784 164.203 13.9667C165.345 15.2551 165.901 17.129 165.901 19.5593V33.4677L166.75 34.2583L169.414 34.4925V36.2786H158.611V34.4925L160.983 34.2583L161.832 33.4677V20.4378C161.832 18.5931 161.451 17.2754 160.69 16.5141C159.929 15.7528 158.641 15.3429 156.855 15.3429C156.064 15.3429 155.215 15.4893 154.308 15.7528C153.4 16.0164 152.405 16.4263 151.351 16.9826V33.5263L152.2 34.3168L154.571 34.5511V36.3372H143.74L143.681 36.3079Z" fill="white"/>
<path d="M183.524 12.0634C186.891 12.0634 189.643 13.2054 191.78 15.5186C193.946 17.8318 195 20.7891 195 24.3906C195 27.9922 193.917 30.9788 191.751 33.2627C189.584 35.5466 186.832 36.7178 183.495 36.7178C180.158 36.7178 177.406 35.5759 175.269 33.2627C173.132 30.9788 172.049 27.9922 172.049 24.3614C172.049 20.7305 173.102 17.7732 175.24 15.46C177.377 13.1761 180.128 12.0049 183.495 12.0049L183.524 12.0634ZM183.524 14.1717C181.475 14.1717 179.806 15.1086 178.577 16.9533C177.318 18.798 176.703 21.2869 176.703 24.3906C176.703 27.4944 177.318 29.9833 178.577 31.828C179.836 33.6726 181.475 34.6096 183.524 34.6096C185.574 34.6096 187.272 33.6726 188.501 31.828C189.76 29.9833 190.375 27.4944 190.375 24.3906C190.375 21.2869 189.731 18.8273 188.472 16.9533C187.213 15.0794 185.544 14.1717 183.495 14.1717H183.524Z" fill="white"/>
</svg>
