<svg width="170" height="33" viewBox="0 0 170 33" fill="none" xmlns="http://www.w3.org/2000/svg">
<path d="M0 31.6538V29.8924L2.70529 29.6882L3.44542 29.0756V5.38679L2.70529 4.77415L0 4.51888V2.80859H10.5149V4.51888L8.06483 4.77415L7.3247 5.38679V29.6882H17.0484L17.661 28.999L18.4011 23.8426H20.6215V31.6793H0V31.6538Z" fill="#0E3456"/>
<path d="M40.5308 27.1093V29.4833C39.2548 30.3257 37.9276 30.9639 36.5495 31.3978C35.1713 31.8318 33.7931 32.0615 32.415 32.0615C29.5565 32.0615 27.2596 31.0915 25.4731 29.1259C23.7121 27.1604 22.8188 24.6332 22.8188 21.4934C22.8188 18.3537 23.7376 15.6478 25.6007 13.6057C27.4638 11.5635 29.8373 10.5425 32.7723 10.5425C35.1458 10.5425 37.0344 11.3083 38.4381 12.8144C39.8418 14.346 40.5308 16.4136 40.5308 19.0173C40.5308 19.3747 40.5308 19.63 40.5308 19.8087C40.5308 19.9874 40.5308 20.1661 40.4798 20.3447H26.5195V20.8297C26.5195 23.5356 27.183 25.6798 28.4846 27.237C29.7862 28.8196 31.5472 29.6109 33.7676 29.6109C34.7885 29.6109 35.8604 29.4067 36.9578 28.9983C38.0552 28.5899 39.2548 27.9517 40.5564 27.1093H40.5308ZM36.6771 18.5323V17.8686C36.6771 16.1328 36.2942 14.8054 35.5286 13.8865C34.763 12.9675 33.6655 12.508 32.2108 12.508C30.7561 12.508 29.5565 13.0696 28.5102 14.2183C27.4638 15.367 26.8768 16.7965 26.7492 18.5323H36.6771V18.5323Z" fill="#0E3456"/>
<path d="M70.0595 2.06801C71.8971 2.06801 73.607 2.37433 75.1894 3.0125C76.7717 3.65066 78.2264 4.59515 79.528 5.84596C80.9828 7.24993 82.0802 8.93469 82.8458 10.8492C83.586 12.7637 83.9688 14.8824 83.9688 17.2054C83.9688 18.8135 83.7901 20.3196 83.4328 21.7236C83.0755 23.1276 82.5141 24.4805 81.7995 25.7057C80.5744 27.7989 78.941 29.4326 76.8738 30.5814C74.8065 31.7556 72.5606 32.3427 70.085 32.3427C68.2475 32.3427 66.512 32.0364 64.9042 31.3982C63.2963 30.76 61.8671 29.8411 60.6165 28.6413C59.1618 27.2374 58.0644 25.5526 57.2987 23.6126C56.5331 21.6725 56.1758 19.5283 56.1758 17.1798C56.1758 14.8314 56.5586 12.7126 57.2987 10.7981C58.0389 8.88364 59.1363 7.2244 60.5655 5.82043C61.8416 4.56963 63.2963 3.62514 64.9042 2.98697C66.512 2.3488 68.222 2.04248 70.085 2.04248L70.0595 2.06801ZM70.0595 4.39094C67.1756 4.39094 64.8786 5.53964 63.1687 7.83705C61.4587 10.1345 60.6165 13.2487 60.6165 17.2054C60.6165 21.162 61.4843 24.2507 63.1942 26.5737C64.9042 28.8966 67.2011 30.0708 70.0595 30.0708C72.9179 30.0708 75.1638 28.8966 76.8738 26.5737C78.5837 24.2507 79.4259 21.1109 79.4259 17.2054C79.4259 13.2998 78.5837 10.1855 76.8738 7.86257C75.1638 5.53964 72.8924 4.39094 70.0595 4.39094V4.39094Z" fill="#0E3456"/>
<path d="M87.0219 31.6531V30.0959L89.3188 29.8917L90.0589 29.2025V13.6312H87.0219V12.2783L92.0241 10.7467H93.6575V14.7799C94.3466 14.0652 95.0867 13.3504 95.8523 12.6612C96.618 11.972 97.4091 11.2828 98.2514 10.6191C98.379 10.568 98.5066 10.5425 98.6597 10.5425C98.8128 10.5425 99.017 10.5425 99.3233 10.5425C99.7571 10.5425 100.191 10.5935 100.599 10.6701C101.008 10.7467 101.442 10.8999 101.901 11.1041V14.8054H100.548C100.268 14.4736 99.9358 14.2183 99.5785 14.0396C99.2212 13.861 98.7873 13.7844 98.3534 13.7844C97.6644 13.7844 96.9498 14.0396 96.1841 14.5502C95.4185 15.0607 94.5762 15.852 93.683 16.9242V29.228L94.4231 29.9173L97.4347 30.1215V31.6786H87.0474L87.0219 31.6531Z" fill="#0E3456"/>
<path d="M116.536 29.1515C115.158 30.096 113.882 30.8107 112.733 31.2702C111.585 31.7297 110.488 31.9595 109.492 31.9595C107.833 31.9595 106.481 31.4489 105.485 30.4534C104.49 29.4323 103.979 28.1049 103.979 26.4712C103.979 24.6333 104.72 23.2038 106.225 22.1317C107.731 21.0851 111.177 19.9108 116.536 18.6345V17.2561C116.536 15.4437 116.23 14.1929 115.643 13.5036C115.056 12.8144 114.035 12.457 112.58 12.457C112.044 12.457 111.483 12.5081 110.972 12.6357C110.436 12.7378 109.875 12.9165 109.314 13.1463V16.7711H106.353C105.843 16.7711 105.485 16.6689 105.281 16.4903C105.102 16.3116 105 15.9542 105 15.4437C105 14.0397 105.817 12.891 107.425 11.9465C109.033 11.002 111.126 10.5681 113.703 10.5681C115.949 10.5681 117.608 11.0531 118.629 12.0486C119.65 13.0186 120.16 14.6013 120.16 16.7711V29.2536L120.9 29.9428L123.172 30.1471V31.7042H117.123L116.562 29.2026L116.536 29.1515ZM106.812 0H111.074L115.235 8.16855H113.091L106.812 0ZM116.536 27.722V20.1406C112.938 21.1361 110.564 22.0551 109.441 22.8719C108.318 23.6888 107.757 24.7864 107.757 26.1394C107.757 27.2115 108.063 28.0794 108.701 28.7176C109.339 29.3557 110.156 29.662 111.202 29.662C111.866 29.662 112.657 29.5089 113.525 29.177C114.392 28.8452 115.413 28.3602 116.536 27.722V27.722Z" fill="#0E3456"/>
<path d="M125.262 31.6531V30.096L127.584 29.8917L128.324 29.2025V13.6312H125.262V12.2783L130.264 10.7467H131.897V13.0952C133.607 12.1507 135.011 11.487 136.057 11.0786C137.104 10.6957 138.022 10.4915 138.839 10.4915C140.728 10.4915 142.157 11.053 143.152 12.1762C144.148 13.2994 144.632 14.9331 144.632 17.0518V29.177L145.373 29.8662L147.695 30.0704V31.6276H138.278V30.0704L140.345 29.8662L141.085 29.177V17.8176C141.085 16.2094 140.753 15.0607 140.09 14.397C139.426 13.7333 138.303 13.376 136.746 13.376C136.057 13.376 135.317 13.5036 134.526 13.7333C133.735 13.9631 132.867 14.3205 131.948 14.8055V29.228L132.688 29.9173L134.756 30.1215V31.6786H125.313L125.262 31.6531Z" fill="#0E3456"/>
<path d="M159.996 10.5176C162.931 10.5176 165.33 11.5131 167.193 13.5298C169.081 15.5464 170 18.1246 170 21.2644C170 24.4041 169.056 27.0079 167.167 28.999C165.279 30.99 162.88 32.0111 159.97 32.0111C157.061 32.0111 154.662 31.0156 152.799 28.999C150.936 27.0079 149.991 24.4041 149.991 21.2388C149.991 18.0735 150.91 15.4953 152.773 13.4787C154.636 11.4876 157.035 10.4666 159.97 10.4666L159.996 10.5176ZM159.996 12.3555C158.209 12.3555 156.754 13.1724 155.683 14.7806C154.585 16.3888 154.049 18.5585 154.049 21.2644C154.049 23.9702 154.585 26.14 155.683 27.7481C156.78 29.3563 158.209 30.1732 159.996 30.1732C161.782 30.1732 163.262 29.3563 164.334 27.7481C165.432 26.14 165.968 23.9702 165.968 21.2644C165.968 18.5585 165.406 16.4143 164.309 14.7806C163.211 13.1469 161.757 12.3555 159.97 12.3555H159.996Z" fill="#0E3456"/>
</svg>
